<svg width="107" height="131" viewBox="0 0 107 131" fill="none" xmlns="http://www.w3.org/2000/svg">
<rect y="24" width="107" height="107" rx="18" fill="#FF5D01"/>
<g filter="url(#filter0_d_6_32)">
<path fill-rule="evenodd" clip-rule="evenodd" d="M27.5194 86.1492C26.5981 88.3623 26.0834 90.7234 26 93.1192C26.1271 94.5968 26.6311 96.0171 27.4636 97.2444C29.0302 99.0581 30.9141 100.571 33.0231 101.71L46.6444 110.778C48.3205 112.112 50.2052 113.16 52.2225 113.88C53.5323 114.192 54.8971 114.192 56.2069 113.88C58.2377 113.169 60.1375 112.128 61.8302 110.799L75.5975 101.725C77.728 100.584 79.6334 99.0645 81.2208 97.2417C82.0593 96.0078 82.5627 94.5771 82.6817 93.09C82.5913 90.6747 82.063 88.296 81.1225 86.0695L69.0817 48.1754C68.813 46.9482 68.3272 45.7788 67.6473 44.7223C67.1522 44.1207 66.5124 43.6546 65.788 43.3676C64.5775 43.0394 63.3182 42.9297 62.0692 43.0436H46.392C45.1426 42.93 43.8829 43.0425 42.6733 43.3756C41.9471 43.6619 41.3068 44.1303 40.8139 44.7356C40.137 45.7921 39.6557 46.9618 39.3928 48.1887L27.5194 86.1492ZM62.6881 51.0867C63.2482 51.9771 63.6449 52.9602 63.8595 53.99L74.1977 87.9475C70.3146 85.9334 66.1467 84.5244 61.8381 83.7692L55.1205 61.0317C55.0792 60.8974 55.0063 60.775 54.908 60.6746C54.8096 60.5743 54.6886 60.499 54.5552 60.455C54.4217 60.4111 54.2797 60.3997 54.141 60.4219C54.0022 60.4442 53.8708 60.4993 53.7578 60.5828C53.6061 60.6938 53.4951 60.8515 53.4417 61.0317L46.8011 83.7612C42.4722 84.5148 38.2848 85.9294 34.3858 87.9554L44.7664 53.9979C44.9789 52.9663 45.3767 51.9818 45.9405 51.092C46.3516 50.5874 46.8833 50.1946 47.4864 49.9498C48.5025 49.6752 49.5596 49.5852 50.6075 49.6842H58.0264C59.0752 49.5851 60.1332 49.6751 61.1502 49.9498C61.755 50.1953 62.2878 50.5901 62.6988 51.0973L62.6881 51.0867ZM54.6848 92.0275C57.8816 92.2126 61.0518 91.352 63.7161 89.5758C64.0189 90.5292 64.1263 91.5339 64.0319 92.5298C63.9374 93.5256 63.643 94.4922 63.1663 95.3717C62.1862 97.0374 60.7639 98.3991 59.057 99.3056C57.2667 100.442 55.7261 101.431 55.7261 104.052C55.7239 104.893 55.9138 105.724 56.2813 106.48C55.0739 105.979 54.0423 105.131 53.3166 104.043C52.5909 102.956 52.2037 101.678 52.2039 100.371V100.209C52.2039 98.3945 52.2039 96.1606 49.6486 96.1606C49.2924 96.1604 48.9395 96.2299 48.61 96.3651C47.9468 96.6397 47.4196 97.1661 47.1438 97.8287C47.0068 98.1579 46.9355 98.5108 46.9339 98.8673C45.1825 96.9546 44.2416 94.4368 44.3095 91.8442C44.2971 90.7221 44.4538 89.6046 44.7744 88.5292C45.8369 90.54 49.8744 92.0354 54.6848 92.0354V92.0275Z" fill="white"/>
</g>
<path d="M50.0359 5.99999C51.5755 3.33333 55.4245 3.33333 56.9641 6L66.0574 21.75C67.597 24.4167 65.6725 27.75 62.5933 27.75L44.4067 27.75C41.3275 27.75 39.403 24.4167 40.9426 21.75L50.0359 5.99999Z" fill="#FF5D01"/>
<defs>
<filter id="filter0_d_6_32" x="22" y="43" width="64.6817" height="79.1143" filterUnits="userSpaceOnUse" color-interpolation-filters="sRGB">
<feFlood flood-opacity="0" result="BackgroundImageFix"/>
<feColorMatrix in="SourceAlpha" type="matrix" values="0 0 0 0 0 0 0 0 0 0 0 0 0 0 0 0 0 0 127 0" result="hardAlpha"/>
<feOffset dy="4"/>
<feGaussianBlur stdDeviation="2"/>
<feComposite in2="hardAlpha" operator="out"/>
<feColorMatrix type="matrix" values="0 0 0 0 0 0 0 0 0 0 0 0 0 0 0 0 0 0 0.25 0"/>
<feBlend mode="normal" in2="BackgroundImageFix" result="effect1_dropShadow_6_32"/>
<feBlend mode="normal" in="SourceGraphic" in2="effect1_dropShadow_6_32" result="shape"/>
</filter>
</defs>
</svg>
