<svg width="107" height="131" viewBox="0 0 107 131" fill="none" xmlns="http://www.w3.org/2000/svg">
<rect y="24" width="107" height="107" rx="18" fill="#563D7C"/>
<g filter="url(#filter0_d_1_140)">
<path d="M52.6663 74.7618H46.0905V63.8017H53.8915C58.1327 63.8017 60.5398 65.6849 60.5398 69.0906C60.5398 72.7271 57.7376 74.7618 52.659 74.7618H52.6663ZM53.8407 79.1126H46.0941V91.191H54.1815C59.4704 91.191 62.2725 89.0806 62.2725 85.1122C62.2725 81.1437 59.3906 79.1126 53.8407 79.1126ZM97 75.3029V79.6971C92.911 80.0867 90.4134 83.1027 88.9307 87.8792C87.4554 92.6377 87.2524 98.4749 87.4082 102.981C87.5714 107.671 83.8993 112 78.9366 112H28.0706C23.1044 112 19.4323 107.671 19.599 102.981C19.7549 98.4749 19.5519 92.6377 18.0765 87.8792C16.5902 83.1027 14.089 80.0867 10 79.6971V75.3029C14.089 74.9133 16.5939 71.8973 18.0729 67.1208C19.5519 62.3623 19.7549 56.5251 19.5954 52.0191C19.4323 47.3292 23.1044 43 28.0706 43H78.9366C83.9029 43 87.5714 47.3292 87.4082 52.0191C87.2524 56.5251 87.4554 62.3623 88.9307 67.1208C90.4134 71.8973 92.911 74.9133 97 75.3029ZM68.2646 85.4657C68.2646 80.5809 64.81 77.049 59.6806 76.4899V76.2842C63.4506 75.6745 66.4086 72.1895 66.4086 68.3005C66.4086 62.7555 62.0115 59.1443 55.3089 59.1443H40.2289V95.8413H55.385C63.4253 95.8413 68.2646 91.9234 68.2646 85.4657Z" fill="white"/>
</g>
<path d="M50.0359 5.99999C51.5755 3.33333 55.4245 3.33333 56.9641 6L66.0574 21.75C67.597 24.4167 65.6725 27.75 62.5933 27.75L44.4067 27.75C41.3275 27.75 39.403 24.4167 40.9426 21.75L50.0359 5.99999Z" fill="#563D7C"/>
<defs>
<filter id="filter0_d_1_140" x="6" y="43" width="95" height="77" filterUnits="userSpaceOnUse" color-interpolation-filters="sRGB">
<feFlood flood-opacity="0" result="BackgroundImageFix"/>
<feColorMatrix in="SourceAlpha" type="matrix" values="0 0 0 0 0 0 0 0 0 0 0 0 0 0 0 0 0 0 127 0" result="hardAlpha"/>
<feOffset dy="4"/>
<feGaussianBlur stdDeviation="2"/>
<feComposite in2="hardAlpha" operator="out"/>
<feColorMatrix type="matrix" values="0 0 0 0 0 0 0 0 0 0 0 0 0 0 0 0 0 0 0.25 0"/>
<feBlend mode="normal" in2="BackgroundImageFix" result="effect1_dropShadow_1_140"/>
<feBlend mode="normal" in="SourceGraphic" in2="effect1_dropShadow_1_140" result="shape"/>
</filter>
</defs>
</svg>
