<svg width="20" height="17" viewBox="0 0 20 17" fill="none" xmlns="http://www.w3.org/2000/svg">
<path d="M17.447 2.345C17.2463 1.66459 16.8299 1.06788 16.2604 0.644887C15.6909 0.22189 14.9994 -0.00445191 14.29 3.50237e-06C13.4679 0.000737287 12.6758 0.308969 12.0694 0.864108C11.463 1.41925 11.0861 2.18114 11.013 3H8.988C8.91386 2.18028 8.53579 1.41793 7.9281 0.862795C7.32042 0.307664 6.52707 -9.74552e-05 5.704 3.50237e-06C4.99558 -0.00347384 4.30521 0.223345 3.73689 0.646294C3.16857 1.06924 2.75308 1.66541 2.553 2.345L0.0420001 10.713C0.0144929 10.8062 0.000351839 10.9028 0 11V12C0.00158836 13.3258 0.52902 14.5968 1.46657 15.5341C2.40413 16.4715 3.67523 16.9987 5.001 17C5.97268 16.9983 6.92285 16.7138 7.73547 16.181C8.54809 15.6483 9.18798 14.8904 9.577 14H10.423C10.812 14.8904 11.4519 15.6483 12.2645 16.181C13.0771 16.7138 14.0273 16.9983 14.999 17C16.3249 16.9987 17.5962 16.4714 18.5338 15.5338C19.4714 14.5962 19.9987 13.3249 20 11.999V11C20 10.902 19.985 10.806 19.958 10.713L17.447 2.345ZM5.001 15C4.20558 14.9989 3.44303 14.6826 2.88049 14.1202C2.31796 13.5579 2.00132 12.7954 2 12C2 11.924 2.017 11.853 2.022 11.778C2.07671 11.0248 2.41394 10.3201 2.96616 9.80494C3.51838 9.28981 4.24482 9.00231 5 9C5.79565 9 6.55871 9.31607 7.12132 9.87868C7.68393 10.4413 8 11.2044 8 12V12.009C7.99657 12.8026 7.67925 13.5626 7.11734 14.123C6.55543 14.6834 5.7946 14.9987 5.001 15ZM14.999 15C14.2054 14.9987 13.4446 14.6834 12.8827 14.123C12.3208 13.5626 12.0034 12.8026 12 12.009V12C11.9999 11.606 12.0775 11.2159 12.2282 10.8519C12.3789 10.4879 12.5998 10.1572 12.8783 9.87854C13.4408 9.31583 14.2039 8.99964 14.9995 8.9995C15.7951 8.99937 16.5583 9.31531 17.121 9.87783C17.6837 10.4403 17.9999 11.2034 18 11.999C17.9989 12.7946 17.6824 13.5573 17.1199 14.1199C16.5573 14.6824 15.7946 14.9989 14.999 15Z" fill="white"/>
</svg>
