<svg width="107" height="131" viewBox="0 0 107 131" fill="none" xmlns="http://www.w3.org/2000/svg">
<rect y="24" width="107" height="107" rx="18" fill="#F8BF11"/>
<g filter="url(#filter0_d_6_41)">
<path d="M85.6953 101.702C85.0828 101.016 84.801 99.7482 84.4887 98.3946C84.1824 97.0471 83.8333 95.5955 82.7247 94.6584V94.6522C82.3202 94.3018 81.8581 94.0241 81.3588 93.8315C82.9023 89.2684 82.2959 84.7236 80.7463 80.6199C78.8353 75.579 75.5094 71.1874 72.9675 68.1861C70.1255 64.5969 67.3448 61.1914 67.3938 56.1627C67.4795 48.482 68.239 34.2414 54.7273 34.223C54.176 34.223 53.6064 34.2475 53.0123 34.2965C37.908 35.5092 41.9138 51.4649 41.6872 56.8059C41.4115 60.7136 40.6214 63.7884 37.9325 67.6104C34.7782 71.365 30.3375 77.4349 28.2305 83.762C27.2383 86.7449 26.7605 89.789 27.2015 92.6677C27.0607 92.7902 26.932 92.9189 26.8095 93.0536C25.8846 94.0397 25.1986 95.2402 24.433 96.0487C23.7225 96.7592 22.7058 97.0287 21.591 97.4269C20.4701 97.8311 19.2451 98.4191 18.504 99.8462V99.8524C18.1752 100.494 18.013 101.208 18.0324 101.929C18.0324 102.59 18.1304 103.258 18.2284 103.901C18.4366 105.248 18.6449 106.516 18.3693 107.374C17.4873 109.793 17.3709 111.459 17.9956 112.672C18.6204 113.891 19.8944 114.424 21.346 114.724C24.2431 115.336 28.1693 115.183 31.2624 116.819C34.5699 118.552 37.9325 119.164 40.6092 118.558C41.545 118.374 42.4244 117.972 43.1758 117.385C43.9271 116.797 44.5293 116.041 44.9334 115.177C47.0282 115.165 49.325 114.283 53.0062 114.075C55.5052 113.879 58.6289 114.963 62.212 114.767C62.3049 115.156 62.4448 115.532 62.6285 115.888L62.6347 115.894C64.025 118.681 66.6159 119.948 69.3722 119.734C72.1284 119.514 75.0562 117.89 77.4265 115.067C79.6928 112.323 83.4413 111.19 85.928 109.689C87.1714 108.936 88.182 107.999 88.2555 106.633C88.3352 105.273 87.5328 103.748 85.6953 101.702Z" fill="#202020"/>
</g>
<g filter="url(#filter1_d_6_41)">
<path d="M87.1224 106.572C87.0795 107.411 86.467 108.042 85.3461 108.715C83.0921 110.075 79.1048 111.251 76.5629 114.338C74.3456 116.972 71.6506 118.411 69.2741 118.601C66.9038 118.785 64.858 117.805 63.6453 115.379V115.367C62.8919 113.94 63.2043 111.692 63.8351 109.322C64.466 106.951 65.3725 104.514 65.495 102.535C65.6175 99.9933 65.7645 97.776 66.1933 96.0671C66.622 94.3521 67.2896 93.2006 68.4779 92.5453C68.5325 92.5157 68.5876 92.4871 68.6433 92.4595C68.778 94.6584 69.8683 96.9001 71.7915 97.384C73.8924 97.9353 76.9243 96.1345 78.2044 94.6584L78.9516 94.6339C80.0786 94.6033 81.0158 94.6706 81.9835 95.5098C82.7246 96.1345 83.0799 97.3289 83.3861 98.6519C83.6924 99.981 83.9374 101.427 84.85 102.456C86.6079 104.416 87.1775 105.726 87.1224 106.572ZM44.376 112.788V112.807C44.1678 115.471 42.661 116.923 40.358 117.45C38.0489 117.976 34.919 117.45 31.7953 115.82C28.3346 113.983 24.2186 114.167 21.5849 113.615C20.2619 113.34 19.3983 112.923 19.0063 112.158C18.6143 111.386 18.602 110.044 19.4411 107.748V107.741L19.4473 107.729C19.8638 106.449 19.5575 105.046 19.3554 103.73C19.1533 102.419 19.0553 101.218 19.5024 100.385L19.5085 100.379C20.0843 99.2705 20.9295 98.8724 21.9769 98.4988C23.0181 98.119 24.2615 97.825 25.2415 96.845L25.2476 96.8389C26.1541 95.8773 26.8463 94.6768 27.6425 93.8254C28.3163 93.1088 28.99 92.631 30.0006 92.6249H30.0313C30.2221 92.6266 30.4125 92.643 30.6009 92.6739C31.9484 92.876 33.1183 93.8193 34.2514 95.3505L37.516 101.298V101.304C38.3858 103.117 40.2171 105.114 41.7729 107.147C43.3286 109.187 44.5291 111.227 44.376 112.788Z" fill="#F8BF11"/>
</g>
<g filter="url(#filter2_d_6_41)">
<path d="M60.6563 57.3265C60.3929 56.812 59.86 56.322 58.9413 55.9484C57.0425 55.1338 56.2218 55.0786 55.1622 54.3926C53.4472 53.284 52.02 52.8981 50.8379 52.8981C50.2704 52.9009 49.7074 52.9982 49.1719 53.186C47.7264 53.676 46.7709 54.7172 46.1707 55.2807C46.0482 55.3971 45.9012 55.4951 45.5337 55.7707C45.1662 56.0341 44.6149 56.4445 43.8187 57.0447C43.102 57.5715 42.8754 58.2697 43.1204 59.0782C43.3654 59.8867 44.1433 60.8239 45.5704 61.6324C46.4585 62.153 47.071 62.8574 47.7693 63.4147C48.12 63.7063 48.5096 63.9475 48.9269 64.1314C49.3679 64.3212 49.8824 64.4499 50.5194 64.4866C52.0384 64.5785 53.1532 64.1191 54.1332 63.5617C55.1132 62.9982 55.9462 62.3122 56.9017 61.9999C58.8617 61.3874 60.2643 60.1562 60.7053 58.9802C60.8166 58.7173 60.8698 58.4334 60.8613 58.148C60.8529 57.8626 60.7829 57.5824 60.6563 57.3265Z" fill="#D6A312"/>
</g>
<g filter="url(#filter3_d_6_41)">
<path d="M55.6827 60.2175C54.1209 61.0321 52.3017 62.0183 50.3601 62.0183C48.4246 62.0183 46.8934 61.124 45.797 60.2481C45.2457 59.8194 44.7986 59.3784 44.4617 59.066C43.8737 58.6066 43.9472 57.9574 44.1861 57.9758C44.5904 58.0248 44.6516 58.5576 44.9027 58.7965C45.2457 59.115 45.6745 59.5315 46.1951 59.9419C47.2364 60.7688 48.6267 61.5711 50.3601 61.5711C52.0996 61.5711 54.1209 60.5544 55.3581 59.8561C56.0625 59.4641 56.9506 58.7598 57.6795 58.2269C58.2307 57.8165 58.2124 57.3265 58.6717 57.3816C59.1311 57.4368 58.7942 57.9268 58.1511 58.4841C57.508 59.0476 56.4974 59.7949 55.6827 60.2175Z" fill="#202020"/>
</g>
<g filter="url(#filter4_d_6_41)">
<path d="M79.5641 93.5008C79.3519 93.4943 79.1394 93.4943 78.9271 93.5008H78.8659C79.4049 91.8041 78.2166 90.5608 75.0623 89.1336C71.7915 87.6943 69.1823 87.8351 68.7413 90.7568C68.7106 90.9099 68.6861 91.063 68.6739 91.2222C68.4202 91.3122 68.1744 91.4228 67.9389 91.553C66.3954 92.3921 65.5563 93.9173 65.0908 95.7915C64.6253 97.6596 64.4905 99.9198 64.3619 102.468C64.2823 103.742 63.7555 105.469 63.2226 107.307C57.8633 111.129 50.4214 112.782 44.1004 108.47C43.6716 107.797 43.1816 107.123 42.6733 106.461C42.3505 106.04 42.0239 105.621 41.6933 105.206C42.2559 105.221 42.8154 105.116 43.3348 104.899C43.5943 104.791 43.829 104.63 44.0248 104.428C44.2206 104.226 44.3734 103.986 44.474 103.723C44.8599 102.682 44.474 101.224 43.2368 99.5584C42.0056 97.8863 39.917 96.0059 36.8484 94.1194C34.5944 92.7106 33.3326 90.9956 32.7446 89.1336C32.1505 87.2655 32.2301 85.2443 32.6834 83.2536C33.5593 79.4255 35.8071 75.7015 37.2343 73.3679C37.6201 73.0861 37.3751 73.8946 35.7888 76.8408C34.3678 79.5358 31.7034 85.7526 35.3478 90.6098C35.4458 87.1553 36.2665 83.6273 37.6569 80.3381C39.672 75.7628 43.8921 67.837 44.2229 61.516C44.4005 61.6385 44.9885 62.0427 45.258 62.1897C46.0298 62.6491 46.6116 63.3167 47.365 63.9231C48.3475 64.7523 49.602 65.1886 50.8869 65.1481C52.3569 65.1481 53.5023 64.6642 54.4516 64.1191C55.4929 63.5311 56.3136 62.8696 57.1038 62.6185C58.7575 62.0979 60.0805 61.1791 60.8278 60.1073C62.114 65.191 65.1153 72.5226 67.0385 76.0996C68.0614 77.9984 70.101 82.0347 70.9769 86.8919C71.5343 86.8796 72.1468 86.9531 72.8083 87.1246C75.1051 81.165 70.8544 74.7399 68.9128 72.9514C68.1288 72.1919 68.0859 71.8489 68.484 71.8673C70.5849 73.7293 73.3534 77.4839 74.364 81.7163C74.8234 83.6456 74.9153 85.673 74.4253 87.6759C74.6703 87.78 74.9153 87.8841 75.1603 88.0066C78.8536 89.8013 80.2195 91.3631 79.5641 93.5008Z" fill="white"/>
</g>
<g filter="url(#filter5_d_6_41)">
<path d="M53.245 77.3797C49.8395 77.392 46.5136 78.9171 43.7022 81.7652C40.8847 84.6072 38.7165 88.6375 37.467 93.3292L37.8406 93.562V93.5865C40.7194 95.4117 42.7712 97.2492 44.0391 98.9642C45.3805 100.777 45.9746 102.541 45.405 104.072C45.1043 104.846 44.5098 105.469 43.7512 105.806L43.5001 105.898C43.9534 106.492 44.3944 107.104 44.8047 107.735C50.5867 111.582 57.312 110.161 62.3651 106.682C62.8551 104.979 63.3022 103.399 63.3635 102.406C63.4921 99.8646 63.6207 97.5555 64.123 95.5465C64.6252 93.5252 65.6052 91.6877 67.455 90.6771C67.5591 90.6159 67.6632 90.5852 67.7674 90.5362C67.8 90.3417 67.845 90.1493 67.9021 89.9605C66.4199 86.1507 64.2822 82.978 61.7159 80.773C59.1434 78.568 56.2217 77.3981 53.2511 77.3797H53.245ZM67.7612 90.5791L67.749 90.6097V90.5975L67.7551 90.573L67.7612 90.5791Z" fill="#E6E6E6"/>
</g>
<g filter="url(#filter6_d_6_41)">
<path d="M60.8277 51.4771C60.8542 52.9266 60.3901 54.3425 59.5108 55.4951C59.0711 55.2987 58.6258 55.1148 58.1756 54.9439L57.3977 54.6683C57.5753 54.4539 57.9183 54.2089 58.0531 53.8904C58.2471 53.4177 58.3509 52.9129 58.3593 52.402L58.3655 52.3407C58.3807 51.85 58.3081 51.3605 58.1511 50.8952C58.0278 50.4704 57.8004 50.083 57.4896 49.7682C57.3664 49.6374 57.2185 49.5322 57.0546 49.4587C56.8906 49.3851 56.7137 49.3446 56.5341 49.3395H56.4912C56.1483 49.3443 55.819 49.4751 55.5663 49.707C55.232 49.9966 54.9751 50.365 54.8191 50.7789C54.6261 51.2519 54.5222 51.7565 54.5128 52.2672V52.3285C54.5032 52.6154 54.5216 52.9027 54.568 53.186C53.8731 52.8653 53.1463 52.6189 52.3997 52.451C52.3642 52.1808 52.3437 51.9088 52.3385 51.6364V51.5567C52.3126 50.6154 52.4967 49.6801 52.8775 48.8189C53.2018 48.0259 53.73 47.3328 54.4087 46.8099C55.0089 46.3251 55.7564 46.0594 56.528 46.0565H56.5647C57.3303 46.0565 57.9857 46.277 58.6595 46.767C59.3532 47.2748 59.897 47.9604 60.2336 48.7515C60.6195 49.5967 60.8093 50.4236 60.8277 51.4036L60.8338 51.4771H60.8277ZM49.2515 52.4816C48.6518 52.6532 48.0803 52.9111 47.5548 53.2473C47.5959 52.9426 47.6 52.6341 47.5671 52.3285V52.2795C47.5296 51.8748 47.4305 51.4782 47.2731 51.1035C47.147 50.7738 46.9457 50.478 46.6851 50.2399C46.5893 50.1459 46.4751 50.0729 46.3496 50.0255C46.2241 49.978 46.0902 49.9572 45.9562 49.9642C45.699 49.9887 45.4846 50.1112 45.2825 50.3624C45.0673 50.6433 44.9205 50.9704 44.8537 51.3179C44.7582 51.7292 44.7313 52.1534 44.7741 52.5735V52.6225C44.8093 53.0296 44.9085 53.4285 45.0681 53.8046C45.2147 54.1812 45.4602 54.5113 45.7786 54.7601L45.1538 55.2501L44.6761 55.5931C44.2517 55.1758 43.9181 54.6753 43.6961 54.1231C43.3715 53.3881 43.1938 52.6531 43.1448 51.7895V51.7834C43.0887 50.9769 43.1822 50.1671 43.4205 49.3946C43.6033 48.721 43.9554 48.1053 44.4433 47.6061C44.648 47.3801 44.8975 47.1992 45.1759 47.0747C45.4542 46.9503 45.7554 46.8851 46.0603 46.8834C46.5748 46.8834 47.0281 47.0549 47.4997 47.4346C48.0385 47.8772 48.4576 48.4479 48.7186 49.0945C49.0432 49.8295 49.2086 50.5645 49.2637 51.4342C49.2821 51.8017 49.2821 52.1447 49.2515 52.4816Z" fill="white"/>
</g>
<g filter="url(#filter7_d_6_41)">
<path d="M51.8118 54.5519C51.873 54.7601 52.2099 54.7295 52.4059 54.8275C52.5712 54.9133 52.7121 55.1031 52.8959 55.1093C53.0796 55.1154 53.3614 55.048 53.3859 54.8643C53.4165 54.6315 53.0674 54.4784 52.8469 54.3926C52.559 54.2762 52.1915 54.2211 51.922 54.3743C51.8607 54.4049 51.7934 54.4784 51.8118 54.5519ZM49.8395 54.5519C49.7783 54.7601 49.4414 54.7295 49.2515 54.8275C49.08 54.9133 48.9453 55.1031 48.7554 55.1093C48.5716 55.1154 48.2899 55.048 48.2654 54.8643C48.2348 54.6315 48.5839 54.4784 48.8044 54.3926C49.0922 54.2762 49.4659 54.2211 49.7354 54.3743C49.7966 54.4049 49.8579 54.4784 49.8395 54.5519Z" fill="#202020"/>
</g>
<path d="M50.0359 5.99999C51.5755 3.33333 55.4245 3.33333 56.9641 6L66.0574 21.75C67.597 24.4167 65.6725 27.75 62.5933 27.75L44.4067 27.75C41.3275 27.75 39.403 24.4167 40.9426 21.75L50.0359 5.99999Z" fill="#F8BF11"/>
<defs>
<filter id="filter0_d_6_41" x="13.6025" y="34.223" width="78.6584" height="93.5344" filterUnits="userSpaceOnUse" color-interpolation-filters="sRGB">
<feFlood flood-opacity="0" result="BackgroundImageFix"/>
<feColorMatrix in="SourceAlpha" type="matrix" values="0 0 0 0 0 0 0 0 0 0 0 0 0 0 0 0 0 0 127 0" result="hardAlpha"/>
<feOffset dy="4"/>
<feGaussianBlur stdDeviation="2"/>
<feComposite in2="hardAlpha" operator="out"/>
<feColorMatrix type="matrix" values="0 0 0 0 0 0 0 0 0 0 0 0 0 0 0 0 0 0 0.25 0"/>
<feBlend mode="normal" in2="BackgroundImageFix" result="effect1_dropShadow_6_41"/>
<feBlend mode="normal" in="SourceGraphic" in2="effect1_dropShadow_6_41" result="shape"/>
</filter>
<filter id="filter1_d_6_41" x="14.7481" y="92.4595" width="76.3779" height="34.1631" filterUnits="userSpaceOnUse" color-interpolation-filters="sRGB">
<feFlood flood-opacity="0" result="BackgroundImageFix"/>
<feColorMatrix in="SourceAlpha" type="matrix" values="0 0 0 0 0 0 0 0 0 0 0 0 0 0 0 0 0 0 127 0" result="hardAlpha"/>
<feOffset dy="4"/>
<feGaussianBlur stdDeviation="2"/>
<feComposite in2="hardAlpha" operator="out"/>
<feColorMatrix type="matrix" values="0 0 0 0 0 0 0 0 0 0 0 0 0 0 0 0 0 0 0.25 0"/>
<feBlend mode="normal" in2="BackgroundImageFix" result="effect1_dropShadow_6_41"/>
<feBlend mode="normal" in="SourceGraphic" in2="effect1_dropShadow_6_41" result="shape"/>
</filter>
<filter id="filter2_d_6_41" x="39.0253" y="52.8981" width="25.8369" height="19.6003" filterUnits="userSpaceOnUse" color-interpolation-filters="sRGB">
<feFlood flood-opacity="0" result="BackgroundImageFix"/>
<feColorMatrix in="SourceAlpha" type="matrix" values="0 0 0 0 0 0 0 0 0 0 0 0 0 0 0 0 0 0 127 0" result="hardAlpha"/>
<feOffset dy="4"/>
<feGaussianBlur stdDeviation="2"/>
<feComposite in2="hardAlpha" operator="out"/>
<feColorMatrix type="matrix" values="0 0 0 0 0 0 0 0 0 0 0 0 0 0 0 0 0 0 0.25 0"/>
<feBlend mode="normal" in2="BackgroundImageFix" result="effect1_dropShadow_6_41"/>
<feBlend mode="normal" in="SourceGraphic" in2="effect1_dropShadow_6_41" result="shape"/>
</filter>
<filter id="filter3_d_6_41" x="40.0091" y="57.3774" width="22.8751" height="12.6409" filterUnits="userSpaceOnUse" color-interpolation-filters="sRGB">
<feFlood flood-opacity="0" result="BackgroundImageFix"/>
<feColorMatrix in="SourceAlpha" type="matrix" values="0 0 0 0 0 0 0 0 0 0 0 0 0 0 0 0 0 0 127 0" result="hardAlpha"/>
<feOffset dy="4"/>
<feGaussianBlur stdDeviation="2"/>
<feComposite in2="hardAlpha" operator="out"/>
<feColorMatrix type="matrix" values="0 0 0 0 0 0 0 0 0 0 0 0 0 0 0 0 0 0 0.25 0"/>
<feBlend mode="normal" in2="BackgroundImageFix" result="effect1_dropShadow_6_41"/>
<feBlend mode="normal" in="SourceGraphic" in2="effect1_dropShadow_6_41" result="shape"/>
</filter>
<filter id="filter4_d_6_41" x="28.3212" y="60.1073" width="55.401" height="58.9205" filterUnits="userSpaceOnUse" color-interpolation-filters="sRGB">
<feFlood flood-opacity="0" result="BackgroundImageFix"/>
<feColorMatrix in="SourceAlpha" type="matrix" values="0 0 0 0 0 0 0 0 0 0 0 0 0 0 0 0 0 0 127 0" result="hardAlpha"/>
<feOffset dy="4"/>
<feGaussianBlur stdDeviation="2"/>
<feComposite in2="hardAlpha" operator="out"/>
<feColorMatrix type="matrix" values="0 0 0 0 0 0 0 0 0 0 0 0 0 0 0 0 0 0 0.25 0"/>
<feBlend mode="normal" in2="BackgroundImageFix" result="effect1_dropShadow_6_41"/>
<feBlend mode="normal" in="SourceGraphic" in2="effect1_dropShadow_6_41" result="shape"/>
</filter>
<filter id="filter5_d_6_41" x="33.467" y="77.3797" width="38.4351" height="40.6523" filterUnits="userSpaceOnUse" color-interpolation-filters="sRGB">
<feFlood flood-opacity="0" result="BackgroundImageFix"/>
<feColorMatrix in="SourceAlpha" type="matrix" values="0 0 0 0 0 0 0 0 0 0 0 0 0 0 0 0 0 0 127 0" result="hardAlpha"/>
<feOffset dy="4"/>
<feGaussianBlur stdDeviation="2"/>
<feComposite in2="hardAlpha" operator="out"/>
<feColorMatrix type="matrix" values="0 0 0 0 0 0 0 0 0 0 0 0 0 0 0 0 0 0 0.25 0"/>
<feBlend mode="normal" in2="BackgroundImageFix" result="effect1_dropShadow_6_41"/>
<feBlend mode="normal" in="SourceGraphic" in2="effect1_dropShadow_6_41" result="shape"/>
</filter>
<filter id="filter6_d_6_41" x="39.129" y="46.0565" width="25.7048" height="17.5366" filterUnits="userSpaceOnUse" color-interpolation-filters="sRGB">
<feFlood flood-opacity="0" result="BackgroundImageFix"/>
<feColorMatrix in="SourceAlpha" type="matrix" values="0 0 0 0 0 0 0 0 0 0 0 0 0 0 0 0 0 0 127 0" result="hardAlpha"/>
<feOffset dy="4"/>
<feGaussianBlur stdDeviation="2"/>
<feComposite in2="hardAlpha" operator="out"/>
<feColorMatrix type="matrix" values="0 0 0 0 0 0 0 0 0 0 0 0 0 0 0 0 0 0 0.25 0"/>
<feBlend mode="normal" in2="BackgroundImageFix" result="effect1_dropShadow_6_41"/>
<feBlend mode="normal" in="SourceGraphic" in2="effect1_dropShadow_6_41" result="shape"/>
</filter>
<filter id="filter7_d_6_41" x="44.2635" y="54.2805" width="13.1243" height="8.82909" filterUnits="userSpaceOnUse" color-interpolation-filters="sRGB">
<feFlood flood-opacity="0" result="BackgroundImageFix"/>
<feColorMatrix in="SourceAlpha" type="matrix" values="0 0 0 0 0 0 0 0 0 0 0 0 0 0 0 0 0 0 127 0" result="hardAlpha"/>
<feOffset dy="4"/>
<feGaussianBlur stdDeviation="2"/>
<feComposite in2="hardAlpha" operator="out"/>
<feColorMatrix type="matrix" values="0 0 0 0 0 0 0 0 0 0 0 0 0 0 0 0 0 0 0.25 0"/>
<feBlend mode="normal" in2="BackgroundImageFix" result="effect1_dropShadow_6_41"/>
<feBlend mode="normal" in="SourceGraphic" in2="effect1_dropShadow_6_41" result="shape"/>
</filter>
</defs>
</svg>
