<svg width="107" height="131" viewBox="0 0 107 131" fill="none" xmlns="http://www.w3.org/2000/svg">
<rect y="24" width="107" height="107" rx="18" fill="#00BFFF"/>
<g filter="url(#filter0_d_1_63)">
<path d="M37.3164 47.6763C35.9548 48.4625 34.5219 50.6304 34.3556 55.3593C34.2766 57.6055 32.3916 59.3624 30.1455 59.2834C27.8993 59.2044 26.1424 57.3195 26.2213 55.0732C26.4252 49.2758 28.2585 43.5074 33.2468 40.6275C38.2492 37.7394 44.1803 39.0509 49.3158 41.7906C51.2989 42.8486 52.0488 45.3138 50.9909 47.2968C49.9329 49.2799 47.4677 50.0298 45.4847 48.9719C41.2879 46.733 38.6821 46.8878 37.3164 47.6763ZM59.1378 54.7352C60.8686 53.3013 63.434 53.5419 64.868 55.2727C67.8762 58.9035 70.7618 63.0438 73.3811 67.5808C79.0259 77.3573 82.5063 87.3738 83.4445 95.7754C83.9127 99.9693 83.7695 103.96 82.7901 107.383C81.803 110.832 79.8805 113.954 76.6563 115.815C72.7554 118.067 68.2511 117.748 64.1285 116.247C59.9913 114.74 55.7332 111.888 51.6739 108.183C50.0139 106.667 49.8966 104.093 51.4118 102.433C52.9271 100.773 55.5012 100.656 57.1612 102.171C60.7377 105.436 64.0989 107.574 66.913 108.599C69.7423 109.628 71.522 109.381 72.5867 108.766C73.4787 108.251 74.3762 107.202 74.965 105.144C75.5613 103.06 75.7496 100.207 75.3556 96.6783C74.5689 89.6346 71.5513 80.6899 66.3324 71.6505C63.932 67.4928 61.3051 63.7302 58.6002 60.4654C57.1664 58.7346 57.407 56.1691 59.1378 54.7352Z" fill="white"/>
<path d="M89.6797 79.3306C89.6797 77.7583 88.5185 75.4334 84.5064 72.925C82.6007 71.7335 82.0217 69.2226 83.2133 67.3169C84.4049 65.4111 86.9156 64.832 88.8213 66.0235C93.7401 69.0988 97.819 73.5707 97.819 79.3306C97.819 85.1069 93.7179 89.5873 88.7773 92.6651C86.8695 93.8534 84.3593 93.2706 83.171 91.3628C81.9827 89.4549 82.566 86.9452 84.4733 85.7567C88.5109 83.2417 89.6797 80.9076 89.6797 79.3306ZM72.6556 94.6988C73.0322 96.9149 71.5411 99.0164 69.325 99.393C64.6769 100.183 59.6483 100.611 54.4095 100.611C43.1205 100.611 32.7057 98.6176 24.9608 95.2289C21.0944 93.5376 17.71 91.4181 15.2353 88.8586C12.7417 86.2793 11 83.0534 11 79.3306C11 74.8264 13.529 71.0851 16.89 68.2655C20.2632 65.4356 24.8623 63.1742 30.1009 61.5114C32.2432 60.8314 34.531 62.0168 35.2111 64.1591C35.891 66.3013 34.7056 68.5892 32.5633 69.2692C27.9478 70.7343 24.4157 72.5761 22.1212 74.5011C19.8144 76.4363 19.1393 78.1011 19.1393 79.3306C19.1393 80.3604 19.5992 81.6624 21.087 83.2013C22.5938 84.7598 24.9705 86.3493 28.2232 87.7723C34.7166 90.6129 43.9716 92.4719 54.4095 92.4719C59.2103 92.4719 63.7823 92.0785 67.9619 91.3682C70.178 90.9922 72.2796 92.4833 72.6556 94.6988Z" fill="white"/>
<path d="M37.4359 108.766C38.7976 109.553 41.3915 109.709 45.57 107.489C47.5548 106.434 50.0187 107.188 51.0734 109.173C52.1282 111.158 51.3742 113.622 49.3894 114.676C44.2668 117.398 38.3545 118.695 33.3663 115.815C28.364 112.927 26.5342 107.135 26.3391 101.317C26.2638 99.0707 28.0237 97.1889 30.2701 97.1135C32.5164 97.0381 34.3985 98.7978 34.4738 101.044C34.6333 105.799 36.0702 107.978 37.4359 108.766ZM32.6384 86.3388C30.5312 85.5569 29.4569 83.2148 30.2389 81.1076C31.8792 76.6871 34.0219 72.1178 36.6413 67.5808C42.2858 57.8043 49.2199 49.7818 56.0268 44.7687C59.425 42.266 62.9525 40.3946 66.4068 39.5314C69.8871 38.6615 73.552 38.7661 76.7757 40.6275C80.6766 42.8796 82.6523 46.9405 83.4135 51.261C84.1776 55.5971 83.8368 60.7108 82.6571 66.079C82.1747 68.2742 80.0043 69.6629 77.8094 69.1806C75.6139 68.6984 74.2254 66.5278 74.7078 64.3326C75.7463 59.6029 75.9173 55.6231 75.398 52.6735C74.8754 49.7082 73.7707 48.2911 72.7061 47.6763C71.8145 47.1614 70.4569 46.9088 68.3803 47.4278C66.2771 47.9534 63.7123 49.217 60.8535 51.3224C55.1466 55.5254 48.9091 62.611 43.6902 71.6505C41.2897 75.8081 39.3447 79.9643 37.8697 83.9393C37.0877 86.0464 34.7456 87.1208 32.6384 86.3388Z" fill="white"/>
<path d="M62.3277 78.5743C62.3277 82.6481 59.0252 85.9505 54.9514 85.9505C50.8777 85.9505 47.5752 82.6481 47.5752 78.5743C47.5752 74.5005 50.8777 71.1981 54.9514 71.1981C59.0252 71.1981 62.3277 74.5005 62.3277 78.5743Z" fill="white"/>
</g>
<path d="M50.0359 5.99999C51.5755 3.33333 55.4245 3.33333 56.9641 6L66.0574 21.75C67.597 24.4167 65.6725 27.75 62.5933 27.75L44.4067 27.75C41.3275 27.75 39.403 24.4167 40.9426 21.75L50.0359 5.99999Z" fill="#00BFFF"/>
<defs>
<filter id="filter0_d_1_63" x="7" y="39" width="94.819" height="86.4424" filterUnits="userSpaceOnUse" color-interpolation-filters="sRGB">
<feFlood flood-opacity="0" result="BackgroundImageFix"/>
<feColorMatrix in="SourceAlpha" type="matrix" values="0 0 0 0 0 0 0 0 0 0 0 0 0 0 0 0 0 0 127 0" result="hardAlpha"/>
<feOffset dy="4"/>
<feGaussianBlur stdDeviation="2"/>
<feComposite in2="hardAlpha" operator="out"/>
<feColorMatrix type="matrix" values="0 0 0 0 0 0 0 0 0 0 0 0 0 0 0 0 0 0 0.25 0"/>
<feBlend mode="normal" in2="BackgroundImageFix" result="effect1_dropShadow_1_63"/>
<feBlend mode="normal" in="SourceGraphic" in2="effect1_dropShadow_1_63" result="shape"/>
</filter>
</defs>
</svg>
