<svg width="107" height="131" viewBox="0 0 107 131" fill="none" xmlns="http://www.w3.org/2000/svg">
<rect y="24" width="107" height="107" rx="18" fill="#007ACC"/>
<path d="M18 84V126H60H102V84V42H60H18V84Z" fill="#007ACC"/>
<g filter="url(#filter0_d_9_7)">
<path d="M36.0261 83.4722L36 86.9143H41.3559H46.7117V102.457V118H50.5H54.2883V102.457V86.9143H59.6441H65V83.5389C65 81.6711 64.9608 80.1101 64.9086 80.0701C64.8694 80.0167 58.3509 79.9901 50.4477 80.0034L36.0653 80.0434L36.0261 83.4722Z" fill="white"/>
</g>
<g filter="url(#filter1_d_9_7)">
<path d="M85.4151 79.3475C87.5384 79.8834 89.1574 80.8348 90.6437 82.3891C91.4134 83.2199 92.5546 84.734 92.6475 85.0958C92.6741 85.203 89.0379 87.6685 86.835 89.0486C86.7554 89.1022 86.4369 88.7538 86.0786 88.2179C85.0037 86.6367 83.8757 85.9534 82.1505 85.8328C79.6158 85.6586 77.9836 86.9985 77.9968 89.2362C77.9968 89.8928 78.0897 90.2814 78.3551 90.8173C78.9125 91.9831 79.9476 92.6799 83.1989 94.1002C89.1839 96.6997 91.7451 98.4148 93.3376 100.853C95.1158 103.574 95.514 107.915 94.3063 111.144C92.9793 114.655 89.6882 117.04 85.0568 117.831C83.6236 118.085 80.2263 118.045 78.6869 117.764C75.3295 117.161 72.1445 115.486 70.1805 113.288C69.4108 112.431 67.9112 110.193 68.0041 110.032C68.0439 109.978 68.389 109.764 68.7738 109.536C69.1454 109.322 70.5521 108.505 71.8791 107.727L74.2811 106.32L74.7854 107.071C75.4887 108.156 77.0281 109.643 77.957 110.139C80.6244 111.56 84.2871 111.359 86.0919 109.724C86.8616 109.014 87.1801 108.277 87.1801 107.191C87.1801 106.213 87.0606 105.784 86.5563 105.047C85.9061 104.11 84.579 103.319 80.8102 101.671C76.4973 99.7949 74.6394 98.6292 72.9408 96.7801C71.9587 95.7081 71.0298 93.993 70.645 92.5593C70.3265 91.3667 70.2468 88.3786 70.499 87.1727C71.3881 82.9653 74.5332 80.0308 79.0718 79.1599C80.5448 78.8785 83.9686 78.9857 85.4151 79.3475Z" fill="white"/>
</g>
<path d="M50.0359 5.99999C51.5755 3.33333 55.4245 3.33333 56.9641 6L66.0574 21.75C67.597 24.4167 65.6725 27.75 62.5933 27.75L44.4067 27.75C41.3275 27.75 39.403 24.4167 40.9426 21.75L50.0359 5.99999Z" fill="#007ACC"/>
<defs>
<filter id="filter0_d_9_7" x="32" y="80" width="37" height="46" filterUnits="userSpaceOnUse" color-interpolation-filters="sRGB">
<feFlood flood-opacity="0" result="BackgroundImageFix"/>
<feColorMatrix in="SourceAlpha" type="matrix" values="0 0 0 0 0 0 0 0 0 0 0 0 0 0 0 0 0 0 127 0" result="hardAlpha"/>
<feOffset dy="4"/>
<feGaussianBlur stdDeviation="2"/>
<feComposite in2="hardAlpha" operator="out"/>
<feColorMatrix type="matrix" values="0 0 0 0 0 0 0 0 0 0 0 0 0 0 0 0 0 0 0.25 0"/>
<feBlend mode="normal" in2="BackgroundImageFix" result="effect1_dropShadow_9_7"/>
<feBlend mode="normal" in="SourceGraphic" in2="effect1_dropShadow_9_7" result="shape"/>
</filter>
<filter id="filter1_d_9_7" x="64" y="79" width="35" height="47" filterUnits="userSpaceOnUse" color-interpolation-filters="sRGB">
<feFlood flood-opacity="0" result="BackgroundImageFix"/>
<feColorMatrix in="SourceAlpha" type="matrix" values="0 0 0 0 0 0 0 0 0 0 0 0 0 0 0 0 0 0 127 0" result="hardAlpha"/>
<feOffset dy="4"/>
<feGaussianBlur stdDeviation="2"/>
<feComposite in2="hardAlpha" operator="out"/>
<feColorMatrix type="matrix" values="0 0 0 0 0 0 0 0 0 0 0 0 0 0 0 0 0 0 0.25 0"/>
<feBlend mode="normal" in2="BackgroundImageFix" result="effect1_dropShadow_9_7"/>
<feBlend mode="normal" in="SourceGraphic" in2="effect1_dropShadow_9_7" result="shape"/>
</filter>
</defs>
</svg>
