<svg width="30" height="30" viewBox="0 0 30 30" fill="none" xmlns="http://www.w3.org/2000/svg">
<path d="M27.4805 0.5H2.51953C1.81641 0.5 1.2207 0.867446 0.732422 1.60234C0.244141 2.33723 0 3.18519 0 4.1462V25.8538C0 26.8148 0.244141 27.6628 0.732422 28.3977C1.2207 29.1326 1.81641 29.5 2.51953 29.5H27.4805C28.1836 29.5 28.7793 29.1326 29.2676 28.3977C29.7559 27.6628 30 26.8148 30 25.8538V4.1462C30 3.18519 29.7559 2.33723 29.2676 1.60234C28.7793 0.867446 28.1836 0.5 27.4805 0.5ZM25.1367 4.1462L15 12.7953L4.86328 4.1462H25.1367ZM2.51953 25.8538V6.35088L14.3555 16.6111C14.4336 16.7242 14.6484 16.7807 15 16.7807C15.3516 16.7807 15.5664 16.7242 15.6445 16.6111L27.4805 6.35088V25.8538H2.51953Z" fill="white"/>
</svg>
