<svg width="107" height="131" viewBox="0 0 107 131" fill="none" xmlns="http://www.w3.org/2000/svg">
<rect y="24" width="107" height="107" rx="18" fill="#455F65"/>
<g filter="url(#filter0_d_1_57)">
<g clip-path="url(#clip0_1_57)">
<g filter="url(#filter1_d_1_57)">
<path d="M39.5021 122.464C47.5045 122.464 53.9992 116.232 53.9992 108.553V94.6424H39.5021C31.4997 94.6424 25.005 100.874 25.005 108.553C25.005 116.232 31.4997 122.464 39.5021 122.464Z" fill="#0ACF83"/>
</g>
<g filter="url(#filter2_d_1_57)">
<path d="M25.005 80.7316C25.005 73.053 31.4997 66.821 39.5021 66.821H53.9992V94.6422H39.5021C31.4997 94.6422 25.005 88.4102 25.005 80.7316Z" fill="#A259FF"/>
</g>
<g filter="url(#filter3_d_1_57)">
<path d="M25.0036 52.9106C25.0036 45.2319 31.4983 39 39.5007 39H53.9978V66.8211H39.5007C31.4983 66.8211 25.0036 60.5892 25.0036 52.9106Z" fill="#F24E1E"/>
</g>
<g filter="url(#filter4_d_1_57)">
<path d="M54 39H68.4971C76.4995 39 82.9942 45.2319 82.9942 52.9106C82.9942 60.5892 76.4995 66.8211 68.4971 66.8211H54V39Z" fill="#FF7262"/>
</g>
<g filter="url(#filter5_d_1_57)">
<path d="M82.9942 80.7316C82.9942 88.4102 76.4995 94.6422 68.4971 94.6422C60.4947 94.6422 54 88.4102 54 80.7316C54 73.053 60.4947 66.821 68.4971 66.821C76.4995 66.821 82.9942 73.053 82.9942 80.7316Z" fill="#1ABCFE"/>
</g>
</g>
</g>
<path d="M50.0359 5.99999C51.5755 3.33333 55.4245 3.33333 56.9641 6L66.0574 21.75C67.597 24.4167 65.6725 27.75 62.5933 27.75L44.4067 27.75C41.3275 27.75 39.403 24.4167 40.9426 21.75L50.0359 5.99999Z" fill="#455F65"/>
<defs>
<filter id="filter0_d_1_57" x="21" y="39" width="66" height="91.4634" filterUnits="userSpaceOnUse" color-interpolation-filters="sRGB">
<feFlood flood-opacity="0" result="BackgroundImageFix"/>
<feColorMatrix in="SourceAlpha" type="matrix" values="0 0 0 0 0 0 0 0 0 0 0 0 0 0 0 0 0 0 127 0" result="hardAlpha"/>
<feOffset dy="4"/>
<feGaussianBlur stdDeviation="2"/>
<feComposite in2="hardAlpha" operator="out"/>
<feColorMatrix type="matrix" values="0 0 0 0 0 0 0 0 0 0 0 0 0 0 0 0 0 0 0.25 0"/>
<feBlend mode="normal" in2="BackgroundImageFix" result="effect1_dropShadow_1_57"/>
<feBlend mode="normal" in="SourceGraphic" in2="effect1_dropShadow_1_57" result="shape"/>
</filter>
<filter id="filter1_d_1_57" x="21.005" y="94.6424" width="36.9942" height="35.8212" filterUnits="userSpaceOnUse" color-interpolation-filters="sRGB">
<feFlood flood-opacity="0" result="BackgroundImageFix"/>
<feColorMatrix in="SourceAlpha" type="matrix" values="0 0 0 0 0 0 0 0 0 0 0 0 0 0 0 0 0 0 127 0" result="hardAlpha"/>
<feOffset dy="4"/>
<feGaussianBlur stdDeviation="2"/>
<feComposite in2="hardAlpha" operator="out"/>
<feColorMatrix type="matrix" values="0 0 0 0 0 0 0 0 0 0 0 0 0 0 0 0 0 0 0.25 0"/>
<feBlend mode="normal" in2="BackgroundImageFix" result="effect1_dropShadow_1_57"/>
<feBlend mode="normal" in="SourceGraphic" in2="effect1_dropShadow_1_57" result="shape"/>
</filter>
<filter id="filter2_d_1_57" x="21.005" y="66.821" width="36.9942" height="35.8211" filterUnits="userSpaceOnUse" color-interpolation-filters="sRGB">
<feFlood flood-opacity="0" result="BackgroundImageFix"/>
<feColorMatrix in="SourceAlpha" type="matrix" values="0 0 0 0 0 0 0 0 0 0 0 0 0 0 0 0 0 0 127 0" result="hardAlpha"/>
<feOffset dy="4"/>
<feGaussianBlur stdDeviation="2"/>
<feComposite in2="hardAlpha" operator="out"/>
<feColorMatrix type="matrix" values="0 0 0 0 0 0 0 0 0 0 0 0 0 0 0 0 0 0 0.25 0"/>
<feBlend mode="normal" in2="BackgroundImageFix" result="effect1_dropShadow_1_57"/>
<feBlend mode="normal" in="SourceGraphic" in2="effect1_dropShadow_1_57" result="shape"/>
</filter>
<filter id="filter3_d_1_57" x="21.0036" y="39" width="36.9942" height="35.8211" filterUnits="userSpaceOnUse" color-interpolation-filters="sRGB">
<feFlood flood-opacity="0" result="BackgroundImageFix"/>
<feColorMatrix in="SourceAlpha" type="matrix" values="0 0 0 0 0 0 0 0 0 0 0 0 0 0 0 0 0 0 127 0" result="hardAlpha"/>
<feOffset dy="4"/>
<feGaussianBlur stdDeviation="2"/>
<feComposite in2="hardAlpha" operator="out"/>
<feColorMatrix type="matrix" values="0 0 0 0 0 0 0 0 0 0 0 0 0 0 0 0 0 0 0.25 0"/>
<feBlend mode="normal" in2="BackgroundImageFix" result="effect1_dropShadow_1_57"/>
<feBlend mode="normal" in="SourceGraphic" in2="effect1_dropShadow_1_57" result="shape"/>
</filter>
<filter id="filter4_d_1_57" x="50" y="39" width="36.9942" height="35.8211" filterUnits="userSpaceOnUse" color-interpolation-filters="sRGB">
<feFlood flood-opacity="0" result="BackgroundImageFix"/>
<feColorMatrix in="SourceAlpha" type="matrix" values="0 0 0 0 0 0 0 0 0 0 0 0 0 0 0 0 0 0 127 0" result="hardAlpha"/>
<feOffset dy="4"/>
<feGaussianBlur stdDeviation="2"/>
<feComposite in2="hardAlpha" operator="out"/>
<feColorMatrix type="matrix" values="0 0 0 0 0 0 0 0 0 0 0 0 0 0 0 0 0 0 0.25 0"/>
<feBlend mode="normal" in2="BackgroundImageFix" result="effect1_dropShadow_1_57"/>
<feBlend mode="normal" in="SourceGraphic" in2="effect1_dropShadow_1_57" result="shape"/>
</filter>
<filter id="filter5_d_1_57" x="50" y="66.821" width="36.9942" height="35.8211" filterUnits="userSpaceOnUse" color-interpolation-filters="sRGB">
<feFlood flood-opacity="0" result="BackgroundImageFix"/>
<feColorMatrix in="SourceAlpha" type="matrix" values="0 0 0 0 0 0 0 0 0 0 0 0 0 0 0 0 0 0 127 0" result="hardAlpha"/>
<feOffset dy="4"/>
<feGaussianBlur stdDeviation="2"/>
<feComposite in2="hardAlpha" operator="out"/>
<feColorMatrix type="matrix" values="0 0 0 0 0 0 0 0 0 0 0 0 0 0 0 0 0 0 0.25 0"/>
<feBlend mode="normal" in2="BackgroundImageFix" result="effect1_dropShadow_1_57"/>
<feBlend mode="normal" in="SourceGraphic" in2="effect1_dropShadow_1_57" result="shape"/>
</filter>
<clipPath id="clip0_1_57">
<rect width="58" height="83.4634" fill="white" transform="translate(25 39)"/>
</clipPath>
</defs>
</svg>
