<svg width="30" height="29" viewBox="0 0 30 29" fill="none" xmlns="http://www.w3.org/2000/svg">
<path d="M15.0017 1.2462e-06C6.71323 -0.00332673 1.52588e-05 6.65929 1.52588e-05 14.8827C1.52588e-05 21.3856 4.19955 26.9134 10.0481 28.9434C10.8357 29.1398 10.715 28.584 10.715 28.2046V25.6254C6.16692 26.1546 5.98259 23.1661 5.67759 22.6669C5.0609 21.6219 3.60296 21.3556 4.03867 20.8564C5.07431 20.3273 6.13006 20.9896 7.35338 22.7833C8.2382 24.0846 9.96427 23.8649 10.839 23.6486C11.0301 22.8665 11.439 22.1677 12.002 21.6252C7.2897 20.7866 5.32568 17.9311 5.32568 14.5366C5.32568 12.8893 5.87199 11.375 6.94449 10.1537C6.26077 8.14024 7.00817 6.41634 7.10872 6.16009C9.05599 5.98703 11.0803 7.54453 11.2379 7.66766C12.3439 7.37147 13.6074 7.21506 15.0218 7.21506C16.4429 7.21506 17.7098 7.37813 18.8258 7.67765C19.2046 7.39144 21.0815 6.05359 22.8913 6.21666C22.9885 6.47292 23.7192 8.15688 23.0757 10.1437C24.1616 11.3684 24.7146 12.8959 24.7146 14.5466C24.7146 17.9478 22.7371 20.8065 18.0114 21.6319C18.4162 22.0271 18.7376 22.4985 18.9568 23.0185C19.1761 23.5385 19.2888 24.0966 19.2884 24.6603V28.4043C19.3152 28.7038 19.2884 29 19.7911 29C25.7268 27.0132 30 21.4455 30 14.886C30 6.65928 23.2834 1.2462e-06 15.0017 1.2462e-06Z" fill="white"/>
</svg>
