<svg width="107" height="131" viewBox="0 0 107 131" fill="none" xmlns="http://www.w3.org/2000/svg">
<rect y="24" width="107" height="107" rx="18" fill="#24292E"/>
<g filter="url(#filter0_d_6_21)">
<path fill-rule="evenodd" clip-rule="evenodd" d="M53.5 38C31.1304 38 13 56.1303 13 78.4999C13 96.3906 24.601 111.573 40.6971 116.933C42.7233 117.298 43.4542 116.052 43.4542 114.98C43.4542 114.017 43.4217 111.467 43.4095 108.093C32.1415 110.538 29.762 102.66 29.762 102.66C27.9266 97.9823 25.2669 96.7358 25.2669 96.7358C21.5921 94.2223 25.5471 94.2791 25.5471 94.2791C29.6158 94.5634 31.7476 98.4534 31.7476 98.4534C35.3615 104.642 41.2331 102.855 43.5313 101.82C43.9008 99.2005 44.9566 97.4139 46.1098 96.4028C37.1197 95.3836 27.6667 91.9078 27.6667 76.3843C27.6667 71.9705 29.2463 68.3485 31.8247 65.5224C31.4146 64.495 30.0137 60.3736 32.2267 54.8025C32.2267 54.8025 35.6254 53.7102 43.3608 58.9483C46.6644 58.0496 50.0722 57.5909 53.4959 57.584C56.9197 57.5896 60.3277 58.0483 63.6311 58.9483C71.3705 53.7062 74.7651 54.8025 74.7651 54.8025C76.9781 60.3736 75.5894 64.495 75.1671 65.5224C77.7659 68.3485 79.3251 71.9664 79.3251 76.3843C79.3251 91.9484 69.864 95.3674 60.8415 96.3703C62.283 97.621 63.5824 100.09 63.5824 103.866C63.5824 109.283 63.5336 113.652 63.5336 114.98C63.5336 116.064 64.2564 117.323 66.3232 116.925C82.4112 111.557 94 96.3865 94 78.4999C94 56.1303 75.8696 38 53.5 38Z" fill="white"/>
</g>
<path d="M50.0359 5.99999C51.5755 3.33333 55.4245 3.33333 56.9641 6L66.0574 21.75C67.597 24.4167 65.6725 27.75 62.5933 27.75L44.4067 27.75C41.3275 27.75 39.403 24.4167 40.9426 21.75L50.0359 5.99999Z" fill="#24292E"/>
<defs>
<filter id="filter0_d_6_21" x="9" y="38" width="89" height="87" filterUnits="userSpaceOnUse" color-interpolation-filters="sRGB">
<feFlood flood-opacity="0" result="BackgroundImageFix"/>
<feColorMatrix in="SourceAlpha" type="matrix" values="0 0 0 0 0 0 0 0 0 0 0 0 0 0 0 0 0 0 127 0" result="hardAlpha"/>
<feOffset dy="4"/>
<feGaussianBlur stdDeviation="2"/>
<feComposite in2="hardAlpha" operator="out"/>
<feColorMatrix type="matrix" values="0 0 0 0 0 0 0 0 0 0 0 0 0 0 0 0 0 0 0.25 0"/>
<feBlend mode="normal" in2="BackgroundImageFix" result="effect1_dropShadow_6_21"/>
<feBlend mode="normal" in="SourceGraphic" in2="effect1_dropShadow_6_21" result="shape"/>
</filter>
</defs>
</svg>
