<svg width="107" height="131" viewBox="0 0 107 131" fill="none" xmlns="http://www.w3.org/2000/svg">
<rect y="24" width="107" height="107" rx="18" fill="#FF5722"/>
<path d="M11 31L18.6693 121L53.1058 131L87.5304 121.006L95.2117 31H11Z" fill="#FF5722"/>
<g filter="url(#filter0_d_1_31)">
<path d="M78.5799 60.4316H53.1059H38.2185L39.1809 71.7379H53.1059H77.6175L74.7242 105.638L53.1059 111.907L53.0879 111.913L31.4816 105.638L29.9718 87.9066H40.5584L41.3463 97.1066L53.0939 100.425L53.1059 100.419L64.8655 97.1004L66.0925 82.7816H53.1059H29.5387L26.6875 49.4004H53.1059H79.5183L78.5799 60.4316Z" fill="#FAFAFA"/>
</g>
<path d="M50.0359 5.99999C51.5755 3.33333 55.4245 3.33333 56.9641 6L66.0574 21.75C67.597 24.4167 65.6725 27.75 62.5933 27.75L44.4067 27.75C41.3275 27.75 39.403 24.4167 40.9426 21.75L50.0359 5.99999Z" fill="#FF5722"/>
<defs>
<filter id="filter0_d_1_31" x="22.6875" y="49.4004" width="60.8308" height="70.5125" filterUnits="userSpaceOnUse" color-interpolation-filters="sRGB">
<feFlood flood-opacity="0" result="BackgroundImageFix"/>
<feColorMatrix in="SourceAlpha" type="matrix" values="0 0 0 0 0 0 0 0 0 0 0 0 0 0 0 0 0 0 127 0" result="hardAlpha"/>
<feOffset dy="4"/>
<feGaussianBlur stdDeviation="2"/>
<feComposite in2="hardAlpha" operator="out"/>
<feColorMatrix type="matrix" values="0 0 0 0 0 0 0 0 0 0 0 0 0 0 0 0 0 0 0.25 0"/>
<feBlend mode="normal" in2="BackgroundImageFix" result="effect1_dropShadow_1_31"/>
<feBlend mode="normal" in="SourceGraphic" in2="effect1_dropShadow_1_31" result="shape"/>
</filter>
</defs>
</svg>
