<svg width="81" height="58" viewBox="0 0 81 58" fill="none" xmlns="http://www.w3.org/2000/svg">
<path d="M70.7113 29L56.1668 54.1147L27.0779 54.1147L12.5335 29L27.0779 3.88526L56.1668 3.88526L70.7113 29Z" fill="#90A955"/>
<path d="M23.7103 9.69775H47.7666V18.2851H18.5978L23.7103 9.69775Z" fill="#101010"/>
<path d="M27.967 49.2688L47.7021 13.2412L53.3352 21.352L35.5484 53.4228L27.967 49.2688Z" fill="#101010"/>
<path d="M59.5225 48.3409L45.2916 19.5119L40.9605 27.4859L56.2137 54.0836L59.5225 48.3409Z" fill="#101010"/>
<path d="M67.8908 31.7042L66.7829 27.4859L64.2575 31.7042L63.0341 37.299L67.8908 31.7042Z" fill="#101010"/>
<path d="M52.5659 46.9035L67.7183 23.7781L70.7114 29L56.2137 54.0836L52.5659 46.9035Z" fill="#101010"/>
<path d="M19.0809 40.3669H38.9805L37.1243 48.9542H24.1317L19.0809 40.3669Z" fill="#101010"/>
<path d="M14.3547 25.6457H36.6293V34.2331L15.1935 33.6624L14.3547 25.6457Z" fill="#101010"/>
<path d="M12.4213 29L22.3076 12.1513L29.7369 16.5671L17.0231 36.7396L12.4213 29Z" fill="#101010"/>
</svg>
