<svg width="107" height="131" viewBox="0 0 107 131" fill="none" xmlns="http://www.w3.org/2000/svg">
<rect y="24" width="107" height="107" rx="18" fill="#539E43"/>
<path d="M50.0359 5.99999C51.5755 3.33333 55.4245 3.33333 56.9641 6L66.0574 21.75C67.597 24.4167 65.6725 27.75 62.5933 27.75L44.4067 27.75C41.3275 27.75 39.403 24.4167 40.9426 21.75L50.0359 5.99999Z" fill="#539E43"/>
<g filter="url(#filter0_d_9_2)">
<path d="M53.5 117.573C52.4286 117.573 51.4286 117.277 50.5 116.759L41 110.911C39.5714 110.097 40.2857 109.801 40.7143 109.653C42.6429 108.987 43 108.839 45 107.654C45.2143 107.506 45.5 107.58 45.7143 107.728L53 112.244C53.2857 112.392 53.6429 112.392 53.8571 112.244L82.3571 95.1446C82.6429 94.9966 82.7857 94.7005 82.7857 94.3304V60.206C82.7857 59.8359 82.6429 59.5398 82.3571 59.3918L53.8571 42.3666C53.5714 42.2186 53.2143 42.2186 53 42.3666L24.5 59.3918C24.2143 59.5398 24.0714 59.91 24.0714 60.206V94.3304C24.0714 94.6265 24.2143 94.9966 24.5 95.1446L32.2857 99.8081C36.5 102.029 39.1429 99.4379 39.1429 96.8472V63.1669C39.1429 62.7228 39.5 62.2787 40 62.2787H43.6429C44.0714 62.2787 44.5 62.6488 44.5 63.1669V96.8472C44.5 102.695 41.4286 106.1 36.0714 106.1C34.4286 106.1 33.1429 106.1 29.5 104.249L22 99.8081C20.1429 98.6977 19 96.6251 19 94.4044V60.2801C19 58.0594 20.1429 55.9868 22 54.8764L50.5 37.7772C52.2857 36.7409 54.7143 36.7409 56.5 37.7772L85 54.8764C86.8571 55.9868 88 58.0594 88 60.2801V94.4044C88 96.6251 86.8571 98.6977 85 99.8081L56.5 116.907C55.5714 117.351 54.5 117.573 53.5 117.573ZM62.2857 94.1083C49.7857 94.1083 47.2143 88.1865 47.2143 83.153C47.2143 82.7089 47.5714 82.2647 48.0714 82.2647H51.7857C52.2143 82.2647 52.5714 82.5608 52.5714 83.005C53.1429 86.9282 54.7857 88.8527 62.3571 88.8527C68.3571 88.8527 70.9286 87.4463 70.9286 84.1153C70.9286 82.1907 70.2143 80.7843 60.8571 79.822C53.0714 79.0077 48.2143 77.2312 48.2143 70.7913C48.2143 64.7954 53.0714 61.2424 61.2143 61.2424C70.3571 61.2424 74.8571 64.4993 75.4286 71.6055C75.4286 71.8276 75.3571 72.0496 75.2143 72.2717C75.0714 72.4197 74.8571 72.5678 74.6429 72.5678H70.9286C70.5714 72.5678 70.2143 72.2717 70.1429 71.9016C69.2857 67.8304 67.0714 66.498 61.2143 66.498C54.6429 66.498 53.8571 68.8667 53.8571 70.6432C53.8571 72.7899 54.7857 73.4561 63.6429 74.6404C72.4286 75.8248 76.5714 77.5273 76.5714 83.8932C76.5 90.4072 71.3571 94.1083 62.2857 94.1083Z" fill="white"/>
</g>
<defs>
<filter id="filter0_d_9_2" x="15" y="37" width="77" height="88.5735" filterUnits="userSpaceOnUse" color-interpolation-filters="sRGB">
<feFlood flood-opacity="0" result="BackgroundImageFix"/>
<feColorMatrix in="SourceAlpha" type="matrix" values="0 0 0 0 0 0 0 0 0 0 0 0 0 0 0 0 0 0 127 0" result="hardAlpha"/>
<feOffset dy="4"/>
<feGaussianBlur stdDeviation="2"/>
<feComposite in2="hardAlpha" operator="out"/>
<feColorMatrix type="matrix" values="0 0 0 0 0 0 0 0 0 0 0 0 0 0 0 0 0 0 0.25 0"/>
<feBlend mode="normal" in2="BackgroundImageFix" result="effect1_dropShadow_9_2"/>
<feBlend mode="normal" in="SourceGraphic" in2="effect1_dropShadow_9_2" result="shape"/>
</filter>
</defs>
</svg>
