<svg width="19" height="17" viewBox="0 0 19 17" fill="none" xmlns="http://www.w3.org/2000/svg">
<path d="M7.5 9C9.706 9 11.5 7.206 11.5 5C11.5 2.794 9.706 1 7.5 1C5.294 1 3.5 2.794 3.5 5C3.5 7.206 5.294 9 7.5 9ZM9 10H6C2.691 10 0 12.691 0 16V17H15V16C15 12.691 12.309 10 9 10Z" fill="white"/>
<path d="M14.6041 8.04803C15.2131 7.01012 15.4761 5.80534 15.3551 4.60803C15.1761 2.82403 14.1801 1.24703 12.5521 0.16803L11.4471 1.83403C12.5661 2.57603 13.2471 3.63303 13.3651 4.80803C13.4195 5.35413 13.3515 5.90549 13.1661 6.42201C12.9806 6.93854 12.6824 7.40724 12.2931 7.79403L11.1011 8.98603L12.7191 9.46103C16.9511 10.701 17.0001 14.957 17.0001 15H19.0001C19.0001 13.211 18.0441 9.71503 14.6041 8.04803Z" fill="white"/>
</svg>
