<svg width="107" height="131" viewBox="0 0 107 131" fill="none" xmlns="http://www.w3.org/2000/svg">
<rect y="24" width="107" height="107" rx="18" fill="#0075B7"/>
<path d="M50.0359 5.99999C51.5755 3.33333 55.4245 3.33333 56.9641 6L66.0574 21.75C67.597 24.4167 65.6725 27.75 62.5933 27.75L44.4067 27.75C41.3275 27.75 39.403 24.4167 40.9426 21.75L50.0359 5.99999Z" fill="#0075B7"/>
<g clip-path="url(#clip0_6_16)" filter="url(#filter0_d_6_16)">
<g filter="url(#filter1_d_6_16)">
<path d="M91.1245 48.4507L74.4386 40.4025C73.8205 40.1524 73.1618 40.0161 72.4946 40.0001H72.1706C71.1181 39.9942 70.093 40.3337 69.2546 40.9659L68.6876 41.4488L36.7737 70.3822L22.8823 60.1207C22.2565 59.645 21.4824 59.4029 20.6953 59.4366C19.9241 59.4278 19.1709 59.6679 18.5488 60.1207L14.0938 64.1448C13.7445 64.4517 13.466 64.8299 13.2772 65.2535C13.0885 65.6771 12.9941 66.1363 13.0003 66.5995C12.9986 67.068 13.095 67.5316 13.2832 67.9611C13.4714 68.3906 13.7475 68.7766 14.0938 69.0945L26.2437 79.9998L14.0938 90.9454C13.7516 91.2618 13.4786 91.6448 13.292 92.0706C13.1054 92.4964 13.0091 92.9558 13.0091 93.4203C13.0091 93.8847 13.1054 94.3441 13.292 94.7699C13.4786 95.1957 13.7516 95.5787 14.0938 95.8951L18.5488 99.9192C19.2205 100.503 20.0864 100.819 20.9788 100.805C21.6642 100.753 22.3225 100.517 22.8823 100.12L36.7737 89.6175L68.6876 118.551C69.5041 119.387 70.5973 119.901 71.7656 120H72.4541C73.1462 120.01 73.8295 119.844 74.4386 119.517L91.1245 111.468C91.9688 111.067 92.6845 110.441 93.1922 109.659C93.6998 108.878 93.9794 107.972 94 107.042V52.998C93.9973 52.0485 93.7263 51.119 93.2179 50.315C92.7095 49.5111 91.9842 48.8652 91.1245 48.4507ZM73.7501 98.2291L49.4502 79.9998L73.7501 61.7706V98.2291Z" fill="white"/>
</g>
</g>
<defs>
<filter id="filter0_d_6_16" x="8" y="35" width="92" height="92" filterUnits="userSpaceOnUse" color-interpolation-filters="sRGB">
<feFlood flood-opacity="0" result="BackgroundImageFix"/>
<feColorMatrix in="SourceAlpha" type="matrix" values="0 0 0 0 0 0 0 0 0 0 0 0 0 0 0 0 0 0 127 0" result="hardAlpha"/>
<feOffset dy="4"/>
<feGaussianBlur stdDeviation="2"/>
<feComposite in2="hardAlpha" operator="out"/>
<feColorMatrix type="matrix" values="0 0 0 0 0 0 0 0 0 0 0 0 0 0 0 0 0 0 0.25 0"/>
<feBlend mode="normal" in2="BackgroundImageFix" result="effect1_dropShadow_6_16"/>
<feBlend mode="normal" in="SourceGraphic" in2="effect1_dropShadow_6_16" result="shape"/>
</filter>
<filter id="filter1_d_6_16" x="9" y="40" width="89" height="88" filterUnits="userSpaceOnUse" color-interpolation-filters="sRGB">
<feFlood flood-opacity="0" result="BackgroundImageFix"/>
<feColorMatrix in="SourceAlpha" type="matrix" values="0 0 0 0 0 0 0 0 0 0 0 0 0 0 0 0 0 0 127 0" result="hardAlpha"/>
<feOffset dy="4"/>
<feGaussianBlur stdDeviation="2"/>
<feComposite in2="hardAlpha" operator="out"/>
<feColorMatrix type="matrix" values="0 0 0 0 0 0 0 0 0 0 0 0 0 0 0 0 0 0 0.25 0"/>
<feBlend mode="normal" in2="BackgroundImageFix" result="effect1_dropShadow_6_16"/>
<feBlend mode="normal" in="SourceGraphic" in2="effect1_dropShadow_6_16" result="shape"/>
</filter>
<clipPath id="clip0_6_16">
<rect width="84" height="84" fill="white" transform="translate(12 35)"/>
</clipPath>
</defs>
</svg>
