<svg width="107" height="132" viewBox="0 0 107 132" fill="none" xmlns="http://www.w3.org/2000/svg">
<rect y="24" width="107" height="107" rx="18" fill="#2F3A3E"/>
<path d="M50.0359 5.99999C51.5755 3.33333 55.4245 3.33333 56.9641 6L66.0574 21.75C67.597 24.4167 65.6725 27.75 62.5933 27.75L44.4067 27.75C41.3275 27.75 39.403 24.4167 40.9426 21.75L50.0359 5.99999Z" fill="#2F3A3E"/>
<g filter="url(#filter0_d_8_126)">
<path d="M88.5456 49.9494L59.2519 32.5574C55.7703 30.4809 51.4303 30.4809 47.9486 32.5574L18.6491 49.9494C15.1247 52.0755 12.9789 55.8991 13.0002 60.0151V94.7932C12.981 98.9071 15.1265 102.728 18.6491 104.853L47.9427 122.239C51.4248 124.314 55.764 124.314 59.2461 122.239L88.5397 104.853C92.0663 102.728 94.2145 98.9045 94.1945 94.7874V60.0151C94.2157 55.8991 92.0699 52.0755 88.5456 49.9494Z" fill="white"/>
<path d="M88.712 49.9911L59.3538 32.5608C55.8645 30.4797 51.5149 30.4797 48.0256 32.5608L18.6615 49.9911C15.1294 52.122 12.9789 55.954 13.0002 60.079V94.9337C12.981 99.0567 15.1312 102.886 18.6615 105.016L48.0197 122.44C51.5094 124.52 55.8582 124.52 59.3479 122.44L88.7061 105.016C92.2405 102.886 94.3934 99.0541 94.3733 94.9279V60.079C94.3946 55.954 92.2441 52.122 88.712 49.9911ZM49.0485 120.659L19.6903 103.234C16.7891 101.476 15.022 98.326 15.0343 94.9337V60.079C15.0208 56.6864 16.7882 53.5355 19.6903 51.7783L49.0485 34.3479C51.9057 32.6433 55.4678 32.6433 58.325 34.3479L87.6597 51.7783C90.078 53.243 91.7276 55.6991 92.1687 58.4917C91.1928 56.4165 89.0001 55.8463 86.4428 57.316L58.6895 74.5053C55.227 76.5217 52.6756 78.7967 52.6697 82.9706V117.196C52.6697 119.695 53.675 121.311 55.227 121.788C54.7187 121.881 54.2034 121.93 53.6867 121.935C52.0542 121.933 50.452 121.493 49.0485 120.659Z" fill="#2F3A3E"/>
<path d="M80.9362 98.2288L73.6392 102.593C73.4438 102.671 73.3128 102.858 73.3049 103.068V104.986C73.3049 105.221 73.4632 105.315 73.6568 105.203L81.0653 100.698C81.2467 100.562 81.3335 100.334 81.2882 100.112V98.4282C81.2823 98.2112 81.1122 98.1173 80.9362 98.2288Z" fill="#3AB14A"/>
<path d="M65.408 82.1616C65.6426 82.0443 65.8362 82.1616 65.8421 82.4959L65.8655 85.0417C66.743 84.643 67.722 84.5242 68.6694 84.7015C68.8512 84.7484 68.9275 84.9948 68.8571 85.288L68.2998 87.5229C68.2576 87.6916 68.1704 87.8456 68.0476 87.9687C68.0045 88.0113 67.955 88.0469 67.901 88.0743C67.8346 88.1101 67.7582 88.1225 67.6839 88.1095C66.7601 87.9049 65.7931 88.0601 64.9798 88.5435C63.7905 89.0793 63.0132 90.2488 62.9796 91.5527C62.9796 92.7258 63.5661 93.0485 65.6133 93.0836C68.3174 93.1306 69.4906 94.3096 69.5199 97.0372C69.4555 99.8843 68.1428 102.559 65.9301 104.352L65.977 106.851C65.9728 107.161 65.8116 107.448 65.5488 107.613L64.0706 108.464C63.836 108.581 63.6424 108.464 63.6365 108.135V105.677C62.3695 106.205 61.0849 106.329 60.2637 106C60.1112 105.941 60.0408 105.713 60.1053 105.449L60.6391 103.19C60.6797 103.012 60.7714 102.849 60.9031 102.721C60.9448 102.681 60.9923 102.648 61.0439 102.621C61.1203 102.587 61.2079 102.587 61.2844 102.621C62.33 102.905 63.4454 102.764 64.3874 102.228C65.7467 101.573 66.6301 100.217 66.6809 98.7089C66.6809 97.4419 65.9829 96.914 64.3346 96.9023C62.2053 96.9023 60.2285 96.4917 60.1875 93.3828C60.2365 90.6668 61.4973 88.115 63.6248 86.426L63.5192 83.8685C63.5183 83.5537 63.6803 83.2608 63.9474 83.0942L65.408 82.1616Z" fill="white"/>
</g>
<defs>
<filter id="filter0_d_8_126" x="9" y="31" width="89.3735" height="101" filterUnits="userSpaceOnUse" color-interpolation-filters="sRGB">
<feFlood flood-opacity="0" result="BackgroundImageFix"/>
<feColorMatrix in="SourceAlpha" type="matrix" values="0 0 0 0 0 0 0 0 0 0 0 0 0 0 0 0 0 0 127 0" result="hardAlpha"/>
<feOffset dy="4"/>
<feGaussianBlur stdDeviation="2"/>
<feComposite in2="hardAlpha" operator="out"/>
<feColorMatrix type="matrix" values="0 0 0 0 0 0 0 0 0 0 0 0 0 0 0 0 0 0 0.25 0"/>
<feBlend mode="normal" in2="BackgroundImageFix" result="effect1_dropShadow_8_126"/>
<feBlend mode="normal" in="SourceGraphic" in2="effect1_dropShadow_8_126" result="shape"/>
</filter>
</defs>
</svg>
