<svg width="107" height="131" viewBox="0 0 107 131" fill="none" xmlns="http://www.w3.org/2000/svg">
<rect y="24" width="107" height="107" rx="18" fill="#EE513B"/>
<path d="M50.0359 5.99999C51.5755 3.33333 55.4245 3.33333 56.9641 6L66.0574 21.75C67.597 24.4167 65.6725 27.75 62.5933 27.75L44.4067 27.75C41.3275 27.75 39.403 24.4167 40.9426 21.75L50.0359 5.99999Z" fill="#EE513B"/>
<g clip-path="url(#clip0_1_70)" filter="url(#filter0_d_1_70)">
<g filter="url(#filter1_d_1_70)">
<path d="M95.6867 73.1347L57.8523 35.309C56.8031 34.2646 55.3829 33.6782 53.9025 33.6782C52.422 33.6782 51.0019 34.2646 49.9527 35.309L42.1137 43.1567L52.076 53.1233C53.2514 52.7262 54.5146 52.6663 55.7223 52.9506C56.9299 53.2349 58.0338 53.8519 58.9086 54.7317C59.7834 55.6115 60.3942 56.7188 60.6716 57.9281C60.9491 59.1374 60.8821 60.4002 60.4783 61.5733L70.0723 71.1803C71.4927 70.6819 73.0405 70.6817 74.461 71.1798C75.8816 71.6778 77.0904 72.6444 77.8886 73.9207C78.6868 75.1969 79.027 76.7069 78.8531 78.2021C78.6793 79.6974 78.0017 81.0889 76.932 82.148C74.3363 84.748 70.146 84.748 67.546 82.148C66.6225 81.2235 65.9915 80.0475 65.7318 78.7668C65.4721 77.4861 65.5952 76.1572 66.0857 74.946L57.0983 66.0063V89.5667C57.731 89.8743 58.3377 90.299 58.862 90.8233C60.1009 92.071 60.7962 93.758 60.7962 95.5163C60.7962 97.2747 60.1009 98.9617 58.862 100.209C58.2438 100.829 57.5095 101.32 56.7013 101.655C55.8931 101.99 55.0266 102.163 54.1517 102.163C53.2767 102.163 52.4103 101.99 51.602 101.655C50.7938 101.32 50.0595 100.829 49.4413 100.209C48.8245 99.5942 48.3351 98.8635 48.0011 98.0589C47.6672 97.2543 47.4953 96.3918 47.4953 95.5207C47.4953 94.6495 47.6672 93.787 48.0011 92.9824C48.3351 92.1779 48.8245 91.4471 49.4413 90.832C50.1 90.182 50.8367 89.688 51.6253 89.363V65.573C50.8151 65.2413 50.0787 64.7523 49.4585 64.1343C48.8384 63.5162 48.347 62.7814 48.0125 61.9723C47.6781 61.1632 47.5073 60.2959 47.5101 59.4204C47.5129 58.5449 47.6891 57.6786 48.0287 56.8717L38.2353 47.0307L12.2917 72.9527C10.125 75.1367 10.125 78.6727 12.2917 80.8567L50.126 118.682C50.6436 119.201 51.2586 119.613 51.9356 119.894C52.6127 120.175 53.3385 120.32 54.0715 120.32C54.8045 120.32 55.5303 120.175 56.2073 119.894C56.8844 119.613 57.4993 119.201 58.017 118.682L95.6737 81.03C96.1952 80.5137 96.6094 79.8993 96.8925 79.2223C97.1756 78.5452 97.322 77.8189 97.3232 77.085C97.3244 76.3512 97.1804 75.6243 96.8995 74.9464C96.6187 74.2684 96.2065 73.6527 95.6867 73.1347Z" fill="white"/>
</g>
</g>
<defs>
<filter id="filter0_d_1_70" x="-7" y="25" width="113" height="112" filterUnits="userSpaceOnUse" color-interpolation-filters="sRGB">
<feFlood flood-opacity="0" result="BackgroundImageFix"/>
<feColorMatrix in="SourceAlpha" type="matrix" values="0 0 0 0 0 0 0 0 0 0 0 0 0 0 0 0 0 0 127 0" result="hardAlpha"/>
<feOffset dx="-5" dy="4"/>
<feGaussianBlur stdDeviation="2"/>
<feComposite in2="hardAlpha" operator="out"/>
<feColorMatrix type="matrix" values="0 0 0 0 0 0 0 0 0 0 0 0 0 0 0 0 0 0 0.25 0"/>
<feBlend mode="normal" in2="BackgroundImageFix" result="effect1_dropShadow_1_70"/>
<feBlend mode="normal" in="SourceGraphic" in2="effect1_dropShadow_1_70" result="shape"/>
</filter>
<filter id="filter1_d_1_70" x="6.66666" y="33.6782" width="94.6565" height="94.6414" filterUnits="userSpaceOnUse" color-interpolation-filters="sRGB">
<feFlood flood-opacity="0" result="BackgroundImageFix"/>
<feColorMatrix in="SourceAlpha" type="matrix" values="0 0 0 0 0 0 0 0 0 0 0 0 0 0 0 0 0 0 127 0" result="hardAlpha"/>
<feOffset dy="4"/>
<feGaussianBlur stdDeviation="2"/>
<feComposite in2="hardAlpha" operator="out"/>
<feColorMatrix type="matrix" values="0 0 0 0 0 0 0 0 0 0 0 0 0 0 0 0 0 0 0.25 0"/>
<feBlend mode="normal" in2="BackgroundImageFix" result="effect1_dropShadow_1_70"/>
<feBlend mode="normal" in="SourceGraphic" in2="effect1_dropShadow_1_70" result="shape"/>
</filter>
<clipPath id="clip0_1_70">
<rect width="104" height="104" fill="white" transform="translate(2 25)"/>
</clipPath>
</defs>
</svg>
