<svg width="107" height="131" viewBox="0 0 107 131" fill="none" xmlns="http://www.w3.org/2000/svg">
<rect y="24" width="107" height="107" rx="18" fill="#CF649A"/>
<g clip-path="url(#clip0_1_41)">
<path d="M83.95 35H23.05C15.8427 35 10 40.8427 10 48.05V108.95C10 116.157 15.8427 122 23.05 122H83.95C91.1573 122 97 116.157 97 108.95V48.05C97 40.8427 91.1573 35 83.95 35Z" fill="#CC6699"/>
<g filter="url(#filter0_d_1_41)">
<path d="M53.8398 49.9531C37.5273 55.5605 26.9922 66.9453 28.0117 73.7422C29.0313 80.5391 39.2266 85.9766 43.8145 89.5449C37.8672 92.6035 30.3906 97.1914 30.5606 103.139C30.9004 111.295 39.7363 108.746 43.4746 106.367C47.2129 103.988 50.9512 97.3613 48.5723 90.3945C53.8398 89.0352 58.4277 90.7344 59.7871 91.7539C65.0547 95.4922 62.3359 99.7402 60.4668 100.42C58.5977 101.1 59.7871 101.439 60.9766 101.1C62.166 100.76 64.7148 99.0605 64.7148 96.1719C64.7148 88.8652 56.8984 85.4668 47.2129 88.0156C41.6055 82.0684 33.959 79.3496 34.2988 72.8926C34.4688 70.5137 35.3184 64.3965 50.4414 56.75C65.5645 49.1035 76.2695 52.1621 74.9102 59.1289C72.8711 69.6641 54.5195 76.8008 48.0625 70.6836C47.7227 70.0039 46.5332 69.4941 47.2129 71.3633C50.6113 79.8594 78.1387 75.9512 79.3281 57.9395C79.668 48.4238 65.9043 45.875 53.8398 49.9531ZM39.2266 104.328C34.9785 105.687 35.1484 102.969 35.3184 101.949C35.8281 99.0605 38.207 95.4922 45.3438 91.9238C47.3828 98.3809 42.7949 103.309 39.2266 104.328Z" fill="white"/>
</g>
</g>
<path d="M50.0359 5.99999C51.5755 3.33333 55.4245 3.33333 56.9641 6L66.0574 21.75C67.597 24.4167 65.6725 27.75 62.5933 27.75L44.4067 27.75C41.3275 27.75 39.403 24.4167 40.9426 21.75L50.0359 5.99999Z" fill="#CF649A"/>
<defs>
<filter id="filter0_d_1_41" x="23.9437" y="48.0807" width="59.3906" height="68.6271" filterUnits="userSpaceOnUse" color-interpolation-filters="sRGB">
<feFlood flood-opacity="0" result="BackgroundImageFix"/>
<feColorMatrix in="SourceAlpha" type="matrix" values="0 0 0 0 0 0 0 0 0 0 0 0 0 0 0 0 0 0 127 0" result="hardAlpha"/>
<feOffset dy="4"/>
<feGaussianBlur stdDeviation="2"/>
<feComposite in2="hardAlpha" operator="out"/>
<feColorMatrix type="matrix" values="0 0 0 0 0 0 0 0 0 0 0 0 0 0 0 0 0 0 0.25 0"/>
<feBlend mode="normal" in2="BackgroundImageFix" result="effect1_dropShadow_1_41"/>
<feBlend mode="normal" in="SourceGraphic" in2="effect1_dropShadow_1_41" result="shape"/>
</filter>
<clipPath id="clip0_1_41">
<rect width="87" height="87" fill="white" transform="translate(10 35)"/>
</clipPath>
</defs>
</svg>
