<svg width="36" height="36" viewBox="0 0 36 36" fill="none" xmlns="http://www.w3.org/2000/svg">
<path d="M25.068 19.9322C24.9288 19.7928 24.7635 19.6822 24.5816 19.6067C24.3996 19.5312 24.2045 19.4924 24.0075 19.4924C23.8105 19.4924 23.6154 19.5312 23.4335 19.6067C23.2515 19.6822 23.0862 19.7928 22.947 19.9322L20.5515 22.3262C19.3155 21.9587 17.3025 21.1697 16.0665 19.9322C14.7555 18.6212 14.0055 16.5527 13.6755 15.4442L16.0665 13.0532C16.2059 12.914 16.3165 12.7487 16.392 12.5667C16.4675 12.3848 16.5063 12.1897 16.5063 11.9927C16.5063 11.7957 16.4675 11.6006 16.392 11.4187C16.3165 11.2367 16.2059 11.0714 16.0665 10.9322L10.0665 4.93219C9.77975 4.66152 9.40034 4.51074 9.00601 4.51074C8.61168 4.51074 8.23227 4.66152 7.94551 4.93219L3.88201 8.99719C3.30901 9.56719 2.98651 10.3532 3.00001 11.1527C3.03301 13.2872 3.59401 20.7032 9.44551 26.5547C15.2925 32.4002 22.713 32.9657 24.849 33.0002H24.891C25.683 33.0002 26.4315 32.6882 26.9985 32.1212L31.0665 28.0532C31.2059 27.914 31.3165 27.7487 31.392 27.5667C31.4675 27.3848 31.5063 27.1897 31.5063 26.9927C31.5063 26.7957 31.4675 26.6006 31.392 26.4187C31.3165 26.2367 31.2059 26.0714 31.0665 25.9322L25.068 19.9322ZM24.8775 30.0002C23.0055 29.9687 16.6005 29.4662 11.5665 24.4322C6.51451 19.3802 6.02851 12.9542 6.00001 11.1212L9.00601 8.11369L12.885 11.9927L10.9455 13.9322C10.5885 14.2892 10.4355 14.8052 10.539 15.3002C10.575 15.4727 11.4555 19.5632 13.9455 22.0532C16.4355 24.5432 20.526 25.4237 20.6985 25.4597C20.9423 25.5117 21.1953 25.5018 21.4343 25.4307C21.6733 25.3597 21.8907 25.2299 22.0665 25.0532L24.006 23.1137L27.885 26.9927L24.8775 30.0002Z" fill="white"/>
<path d="M23.6925 10.1866L19.5075 6.00013V16.4926H30L25.8135 12.3076L32.568 5.55313L30.447 3.43213L23.6925 10.1866Z" fill="white"/>
</svg>
