<svg width="107" height="131" viewBox="0 0 107 131" fill="none" xmlns="http://www.w3.org/2000/svg">
<rect y="24" width="107" height="107" rx="18" fill="#8831FF"/>
<g clip-path="url(#clip0_1_76)">
<g filter="url(#filter0_d_1_76)">
<path d="M95.6508 46.438L56.2254 116.937C55.4112 118.392 53.3202 118.401 52.4937 116.953L12.2868 46.4446C11.3868 44.866 12.7362 42.9541 14.5248 43.2736L53.9928 50.3284C54.2445 50.3734 54.5023 50.373 54.7539 50.3272L93.3963 43.2838C95.1789 42.9589 96.5352 44.8564 95.6508 46.438Z" fill="url(#paint0_linear_1_76)"/>
</g>
<g filter="url(#filter1_d_1_76)">
<path d="M72.7932 34.0207L43.6173 39.7375C43.3841 39.7831 43.1727 39.905 43.0164 40.0839C42.86 40.2627 42.7676 40.4885 42.7536 40.7257L40.959 71.0371C40.917 71.7511 41.5725 72.3052 42.2691 72.1444L50.3922 70.27C51.1524 70.0945 51.8391 70.7641 51.6828 71.5282L49.2696 83.3461C49.107 84.1411 49.8537 84.8215 50.6304 84.5857L55.6476 83.0611C56.4255 82.825 57.1728 83.5072 57.0084 84.3031L53.1732 102.866C52.9332 104.027 54.4776 104.66 55.1217 103.665L55.5519 103L79.326 55.5544C79.7241 54.76 79.038 53.8543 78.165 54.0226L69.804 55.6363C69.018 55.7878 68.3496 55.0561 68.5713 54.2872L74.0286 35.3692C74.2506 34.5988 73.5798 33.8665 72.7932 34.0207Z" fill="url(#paint1_linear_1_76)"/>
</g>
</g>
<path d="M50.0359 5.99999C51.5755 3.33333 55.4245 3.33333 56.9641 6L66.0574 21.75C67.597 24.4167 65.6725 27.75 62.5933 27.75L44.4067 27.75C41.3275 27.75 39.403 24.4167 40.9426 21.75L50.0359 5.99999Z" fill="#8831FF"/>
<defs>
<filter id="filter0_d_1_76" x="8.00012" y="43.2383" width="91.9284" height="82.7955" filterUnits="userSpaceOnUse" color-interpolation-filters="sRGB">
<feFlood flood-opacity="0" result="BackgroundImageFix"/>
<feColorMatrix in="SourceAlpha" type="matrix" values="0 0 0 0 0 0 0 0 0 0 0 0 0 0 0 0 0 0 127 0" result="hardAlpha"/>
<feOffset dy="4"/>
<feGaussianBlur stdDeviation="2"/>
<feComposite in2="hardAlpha" operator="out"/>
<feColorMatrix type="matrix" values="0 0 0 0 0 0 0 0 0 0 0 0 0 0 0 0 0 0 0.25 0"/>
<feBlend mode="normal" in2="BackgroundImageFix" result="effect1_dropShadow_1_76"/>
<feBlend mode="normal" in="SourceGraphic" in2="effect1_dropShadow_1_76" result="shape"/>
</filter>
<filter id="filter1_d_1_76" x="36.9571" y="34" width="46.4849" height="78.1588" filterUnits="userSpaceOnUse" color-interpolation-filters="sRGB">
<feFlood flood-opacity="0" result="BackgroundImageFix"/>
<feColorMatrix in="SourceAlpha" type="matrix" values="0 0 0 0 0 0 0 0 0 0 0 0 0 0 0 0 0 0 127 0" result="hardAlpha"/>
<feOffset dy="4"/>
<feGaussianBlur stdDeviation="2"/>
<feComposite in2="hardAlpha" operator="out"/>
<feColorMatrix type="matrix" values="0 0 0 0 0 0 0 0 0 0 0 0 0 0 0 0 0 0 0.25 0"/>
<feBlend mode="normal" in2="BackgroundImageFix" result="effect1_dropShadow_1_76"/>
<feBlend mode="normal" in="SourceGraphic" in2="effect1_dropShadow_1_76" result="shape"/>
</filter>
<linearGradient id="paint0_linear_1_76" x1="11.305" y1="40.7538" x2="60.3705" y2="107.389" gradientUnits="userSpaceOnUse">
<stop stop-color="#41D1FF"/>
<stop offset="1" stop-color="#BD34FE"/>
</linearGradient>
<linearGradient id="paint1_linear_1_76" x1="51.7253" y1="35.5726" x2="60.601" y2="96.459" gradientUnits="userSpaceOnUse">
<stop stop-color="#FFEA83"/>
<stop offset="0.0833" stop-color="#FFDD35"/>
<stop offset="1" stop-color="#FFA800"/>
</linearGradient>
<clipPath id="clip0_1_76">
<rect width="96" height="96" fill="white" transform="translate(6 28)"/>
</clipPath>
</defs>
</svg>
